<?xml version="1.0" encoding="utf-8"?>
<svg version="1.1" id="Logo" xmlns="http://www.w3.org/2000/svg" xmlns:xlink="http://www.w3.org/1999/xlink" x="0px" y="0px"
	 viewBox="0 0 451.6 452" style="enable-background:new 0 0 451.6 452;" xml:space="preserve">
<style type="text/css">
	.st0{fill:#FFFFFF;}
</style>
<g>
	<circle class="st0" cx="207.4" cy="186.3" r="25.5"/>
	<polygon class="st0" points="96.4,337.3 267.4,337.3 181.9,217.1 	"/>
	<path class="st0" d="M35.3,337.3v-33.1V105.2c0-0.2,0-0.4,0-0.7c0.1-0.7,0.2-1.3,0.5-1.9c0.2-0.4,0.4-0.8,0.6-1.1
		c0.3-0.5,0.8-1,1.3-1.4c1.1-0.9,2.6-1.5,4.1-1.5H363h32.3V78.6c0-3.6-2.9-6.5-6.5-6.5h-373c-3.6,0-6.5,2.9-6.5,6.5v252.3
		c0,3.6,2.9,6.5,6.5,6.5H35.3z"/>
	<path class="st0" d="M434.2,116.2h-373c-3.6,0-6.5,2.9-6.5,6.5v252.3c0,3.6,2.9,6.5,6.5,6.5h373c3.6,0,6.5-2.9,6.5-6.5V122.6
		C440.6,119.1,437.7,116.2,434.2,116.2z M414.8,348.3c0,3.6-2.9,6.5-6.5,6.5H87c-3.6,0-6.5-2.9-6.5-6.5V149.2c0-3.6,2.9-6.5,6.5-6.5
		h321.3c3.6,0,6.5,2.9,6.5,6.5V348.3z"/>
	<polygon class="st0" points="215.7,245.4 281.1,337.3 395.3,337.3 272.8,165 	"/>
</g>
</svg>
